<svg fill="currentColor" xmlns="http://www.w3.org/2000/svg" viewBox="0 0 469.34 469.34">
    <path d="M456.84 76.17l-64-64.06c-16.13-16.13-44.18-16.17-60.37.04L45.77 301.67a10.73 10.73 0 00-2.7 4.59L.41 455.73a10.68 10.68 0 0013.19 13.2l149.33-42.7c1.73-.5 3.3-1.42 4.58-2.7l289.33-286.98c8.06-8.07 12.5-18.78 12.5-30.19s-4.44-22.12-12.5-30.2zM285.99 89.74L325.25 129l-205 205-14.7-29.44a10.67 10.67 0 00-9.55-5.9H78.92L286 89.75zM26.2 443.14l13.9-48.64 34.74 34.74-48.64 13.9zm123.14-35.18L98.3 422.54l-51.5-51.5L61.38 320H89.4l18.38 36.77a10.67 10.67 0 004.77 4.77l36.78 18.39v28.03zm21.33-17.54v-17.09c0-4.04-2.28-7.72-5.9-9.54l-29.43-14.7 205-205 39.26 39.26-208.93 207.07zm271.11-268.7l-47.03 46.61L301 74.6l46.59-47c8.06-8.07 22.1-8.07 30.16 0l64 64c4.03 4.03 6.25 9.38 6.25 15.08s-2.22 11.05-6.22 15.05z" /></svg>