<svg width="550" height="488" viewBox="0 0 550 488" fill="none" xmlns="http://www.w3.org/2000/svg">
    <path fill-rule="evenodd" clip-rule="evenodd" d="M250.61 168.33C256.571 168.33 262.294 170.698 266.512 174.916C270.731 179.131 273.102 184.85 273.102 190.814C273.102 196.779 270.735 202.502 266.516 206.72C262.301 210.935 256.582 213.306 250.618 213.306C244.653 213.306 238.93 210.939 234.712 206.72C230.497 202.505 228.126 196.783 228.126 190.818C228.134 184.857 230.501 179.142 234.716 174.927C238.931 170.712 244.646 168.337 250.611 168.33L250.61 168.33ZM250.61 239.002C263.387 239.002 275.641 233.928 284.68 224.889C293.715 215.854 298.793 203.6 298.793 190.819C298.793 178.042 293.715 165.784 284.68 156.749C275.641 147.714 263.387 142.636 250.61 142.636C237.829 142.636 225.575 147.714 216.536 156.749C207.501 165.785 202.427 178.042 202.427 190.819C202.439 203.596 207.521 215.842 216.552 224.878C225.587 233.91 237.833 238.991 250.611 239.003L250.61 239.002ZM497.71 461.572C504.523 461.565 511.054 458.854 515.87 454.037C520.69 449.221 523.401 442.689 523.409 435.877V324.687L407.809 209.097L239.629 377.327C234.625 382.323 226.527 382.343 221.5 377.366L142.23 298.862L26.5901 414.502V435.873C26.5979 442.686 29.3089 449.213 34.1253 454.029C38.9417 458.845 45.4733 461.557 52.2853 461.568L497.71 461.572ZM52.28 26.4324C45.4675 26.4402 38.936 29.1512 34.12 33.9676C29.304 38.784 26.5927 45.3156 26.5848 52.1276V378.168L133.095 271.658C138.095 266.661 146.193 266.638 151.22 271.611L230.521 350.111L398.721 181.841C403.74 176.821 411.877 176.821 416.897 181.841L523.407 288.351V52.1307C523.399 45.3182 520.688 38.7867 515.872 33.9707C511.051 29.1504 504.52 26.4434 497.708 26.4355L52.28 26.4324ZM497.71 0.733398H52.28C38.655 0.749023 25.592 6.167 15.956 15.8034C6.32322 25.4401 0.905015 38.5024 0.890015 52.1274V435.877C0.90564 449.502 6.32361 462.565 15.96 472.197C25.5928 481.834 38.655 487.256 52.28 487.271H497.71C511.335 487.256 524.398 481.838 534.034 472.201C543.667 462.565 549.089 449.502 549.104 435.877V52.1274C549.088 38.5024 543.67 25.4364 534.034 15.8034C524.401 6.1667 511.335 0.748398 497.71 0.733398V0.733398Z" fill="currentColor"/>
</svg>
